<mxfile host="app.diagrams.net" modified="2024-05-27T11:29:57.624Z" agent="Mozilla/5.0 (Windows NT 10.0; Win64; x64) AppleWebKit/537.36 (KHTML, like Gecko) Chrome/125.0.0.0 Safari/537.36" version="24.4.8" etag="pKashxFYCYVaQcR1P2Pf" type="github">
  <diagram name="第 1 页" id="wU-453oeVGQmZ7itbZ2u">
    <mxGraphModel>
      <root>
        <mxCell id="0" />
        <mxCell id="1" parent="0" />
      </root>
    </mxGraphModel>
  </diagram>
</mxfile>
